<svg xmlns="http://www.w3.org/2000/svg" xmlns:xlink="http://www.w3.org/1999/xlink" width="500" zoomAndPan="magnify" viewBox="0 0 375 374.999991" height="500" preserveAspectRatio="xMidYMid meet" version="1.0"><path fill="#ffffff" d="M 131.972656 13.753906 C 87.054688 29.199219 48.65625 62.742188 27.402344 105.453125 C 19.917969 120.171875 14.605469 135.617188 11.222656 152.027344 C 3.011719 192.085938 8.808594 235.039062 27.164062 271.476562 C 39.238281 295.367188 56.382812 316.601562 77.394531 333.011719 C 97.195312 348.695312 120.136719 360.519531 144.53125 366.796875 C 175.441406 375 208.042969 374.757812 239.195312 367.761719 C 267.210938 361.246094 293.773438 347.972656 315.027344 328.425781 C 337.484375 307.914062 353.421875 280.886719 361.875 251.6875 C 371.050781 220.078125 372.261719 186.050781 366.464844 153.714844 C 308.503906 153.714844 250.546875 153.714844 192.585938 153.714844 C 192.585938 177.847656 192.585938 201.738281 192.585938 225.867188 C 226.15625 225.867188 259.722656 225.867188 293.289062 225.867188 C 289.425781 248.792969 275.660156 270.027344 256.34375 283.058594 C 244.027344 291.265625 230.019531 296.574219 215.527344 299.226562 C 201.039062 301.640625 185.824219 302.125 171.335938 299.226562 C 156.605469 296.332031 142.597656 290.058594 130.28125 281.371094 C 110.71875 267.617188 95.503906 247.34375 88.019531 224.664062 C 80.050781 201.496094 80.050781 175.917969 88.019531 152.75 C 93.574219 136.582031 102.75 121.378906 114.824219 109.074219 C 129.796875 93.871094 149.117188 82.769531 170.128906 78.425781 C 188 74.566406 206.835938 75.289062 224.464844 80.597656 C 239.4375 85.183594 252.960938 93.386719 264.3125 104.003906 C 275.660156 92.664062 287.011719 81.324219 298.363281 69.980469 C 304.398438 63.949219 310.679688 58.15625 316.234375 51.882812 C 299.085938 35.957031 278.800781 23.164062 256.824219 14.960938 C 216.738281 0.242188 172.058594 0 131.972656 13.753906 Z M 131.972656 13.753906 " fill-opacity="1" fill-rule="nonzero"/><path fill="#ea4335" d="M 131.972656 13.753906 C 171.820312 0 216.738281 0.242188 256.582031 14.960938 C 278.558594 23.167969 298.84375 35.714844 315.992188 51.882812 C 310.195312 58.15625 303.917969 63.949219 298.121094 69.980469 C 286.769531 81.324219 275.421875 92.664062 264.070312 104.003906 C 252.960938 93.386719 239.195312 85.183594 224.222656 80.597656 C 206.835938 75.289062 187.757812 74.566406 169.886719 78.425781 C 149.117188 83.011719 129.554688 93.871094 114.582031 109.074219 C 102.507812 121.378906 93.332031 136.339844 87.777344 152.75 C 67.492188 137.066406 47.449219 121.378906 27.164062 105.695312 C 48.65625 62.742188 87.054688 29.199219 131.972656 13.753906 Z M 131.972656 13.753906 " fill-opacity="1" fill-rule="nonzero"/><path fill="#fbbc05" d="M 11.222656 151.785156 C 14.605469 135.617188 19.917969 119.933594 27.402344 105.210938 C 47.6875 120.898438 67.734375 136.582031 88.019531 152.269531 C 80.050781 175.433594 80.050781 201.011719 88.019531 224.179688 C 67.734375 239.863281 47.6875 255.550781 27.402344 271.234375 C 8.808594 234.554688 3.253906 191.84375 11.222656 151.785156 Z M 11.222656 151.785156 " fill-opacity="1" fill-rule="nonzero"/><path fill="#4285f4" d="M 192.34375 153.714844 C 250.304688 153.714844 308.261719 153.714844 366.222656 153.714844 C 372.019531 186.292969 370.8125 220.078125 361.632812 251.6875 C 353.183594 280.886719 337.242188 307.671875 314.785156 328.425781 C 295.222656 313.222656 275.660156 298.019531 256.101562 282.820312 C 275.421875 269.789062 289.183594 248.792969 293.050781 225.628906 C 259.480469 225.628906 225.914062 225.628906 192.34375 225.628906 C 192.34375 201.738281 192.34375 177.605469 192.34375 153.714844 Z M 192.34375 153.714844 " fill-opacity="1" fill-rule="nonzero"/><path fill="#34a853" d="M 27.402344 271.234375 C 47.6875 255.550781 67.734375 239.863281 88.019531 224.179688 C 95.746094 246.863281 110.71875 267.132812 130.28125 280.886719 C 142.597656 289.574219 156.605469 295.609375 171.335938 298.746094 C 185.824219 301.640625 200.796875 301.398438 215.527344 298.746094 C 230.019531 296.089844 244.027344 290.78125 256.34375 282.578125 C 275.902344 297.78125 295.464844 312.984375 315.027344 328.183594 C 293.773438 347.730469 267.449219 361.003906 239.195312 367.519531 C 208.285156 374.515625 175.441406 374.757812 144.53125 366.554688 C 120.136719 360.039062 97.195312 348.457031 77.394531 332.769531 C 56.625 316.359375 39.238281 294.882812 27.402344 271.234375 Z M 27.402344 271.234375 " fill-opacity="1" fill-rule="nonzero"/></svg>