<svg xmlns="http://www.w3.org/2000/svg" xmlns:xlink="http://www.w3.org/1999/xlink" width="500" zoomAndPan="magnify" viewBox="0 0 375 374.999991" height="500" preserveAspectRatio="xMidYMid meet" version="1.0"><path fill="#6D28D9" d="M 367.929688 150 C 369.921875 150 371.636719 151.402344 371.984375 153.363281 C 373.9375 164.316406 375 176.105469 375 187.5 C 375 235.535156 356.933594 279.351562 327.230469 312.527344 C 325.746094 314.179688 323.21875 314.328125 321.523438 312.890625 L 270.574219 269.765625 C 268.714844 268.195312 268.601562 265.378906 270.242188 263.585938 C 280.386719 252.53125 288.351562 239.441406 293.464844 225 L 191.667969 225 C 189.363281 225 187.5 223.136719 187.5 220.832031 L 187.5 154.167969 C 187.5 151.863281 189.363281 150 191.667969 150 Z M 367.929688 150 " fill-opacity="1" fill-rule="nonzero"/><path fill="#6D28D9" d="M 239.015625 287.503906 C 240.546875 286.707031 242.414062 286.886719 243.734375 288.003906 L 297.226562 333.269531 C 299.257812 334.988281 299.179688 338.144531 297.019531 339.703125 C 266.207031 361.914062 228.382812 375 187.5 375 C 121.625 375 63.683594 341.023438 30.238281 289.640625 C 29.070312 287.847656 29.503906 285.460938 31.203125 284.15625 L 84.226562 243.300781 C 86.269531 241.726562 89.234375 242.371094 90.542969 244.589844 C 110.113281 277.753906 146.210938 300 187.5 300 C 206.082031 300 223.589844 295.488281 239.015625 287.503906 Z M 239.015625 287.503906 " fill-opacity="1" fill-rule="nonzero"/><path fill="#6D28D9" d="M 76.648438 206.792969 C 76.917969 208.351562 76.324219 209.941406 75.074219 210.902344 L 18.101562 254.800781 C 15.921875 256.480469 12.738281 255.621094 11.773438 253.039062 C 4.160156 232.636719 0 210.554688 0 187.5 C 0 163.488281 4.515625 140.53125 12.738281 119.429688 C 13.71875 116.925781 16.804688 116.074219 18.972656 117.664062 L 75.890625 159.40625 C 77.246094 160.398438 77.863281 162.109375 77.511719 163.753906 C 75.867188 171.40625 75 179.351562 75 187.5 C 75 194.078125 75.566406 200.523438 76.648438 206.792969 Z M 76.648438 206.792969 " fill-opacity="1" fill-rule="nonzero"/><path fill="#6D28D9" d="M 86.398438 128.359375 C 88.394531 129.824219 91.21875 129.230469 92.546875 127.140625 C 112.519531 95.792969 147.582031 75 187.5 75 C 214.765625 75 239.691406 84.777344 259.152344 100.929688 C 260.851562 102.339844 263.351562 102.273438 264.914062 100.710938 L 312.117188 53.507812 C 313.785156 51.839844 313.738281 49.117188 311.980469 47.550781 C 278.859375 18.054688 235.335938 0 187.5 0 C 122.503906 0 65.226562 33.078125 31.585938 83.320312 C 30.363281 85.144531 30.824219 87.605469 32.597656 88.902344 Z M 86.398438 128.359375 " fill-opacity="1" fill-rule="nonzero"/></svg>