<svg xmlns="http://www.w3.org/2000/svg" xmlns:xlink="http://www.w3.org/1999/xlink" width="500" zoomAndPan="magnify" viewBox="0 0 375 374.999991" height="500" preserveAspectRatio="xMidYMid meet" version="1.0"><defs><clipPath id="id1"><path d="M 22 29.398438 L 192 29.398438 L 192 214 L 22 214 Z M 22 29.398438 " clip-rule="nonzero"/></clipPath><clipPath id="id2"><path d="M 85 87 L 353.371094 87 L 353.371094 345.898438 L 85 345.898438 Z M 85 87 " clip-rule="nonzero"/></clipPath></defs><path fill="#f64b31" d="M 119.707031 95.492188 C 118.210938 101.25 118.300781 107.433594 120.117188 113.113281 C 111.085938 111.261719 102.371094 108.226562 95.613281 101.730469 C 92.523438 98.75 89.839844 95.140625 88.859375 90.976562 C 87.878906 86.792969 88.84375 81.984375 92.0625 79.132812 C 96.761719 74.949219 103.515625 77.484375 106.71875 82.222656 C 106.441406 81.796875 106.921875 80.1875 107.070312 79.6875 C 107.308594 78.855469 107.660156 78.039062 108.105469 77.300781 C 108.992188 75.875 110.269531 74.691406 111.769531 73.929688 C 114.839844 72.359375 118.855469 72.691406 121.484375 75.042969 C 126.316406 79.355469 123.632812 86.851562 121.113281 91.605469 C 120.449219 92.808594 120.058594 94.144531 119.707031 95.492188 Z M 119.707031 95.492188 " fill-opacity="1" fill-rule="nonzero"/><g clip-path="url(#id1)"><path fill="#a4c52c" d="M 134.289062 193.089844 C 127.941406 194.332031 115.765625 195.199219 111.621094 195.257812 C 103.570312 195.367188 95.484375 194.792969 87.601562 193.109375 C 75 190.40625 62.824219 183.726562 55.71875 172.972656 C 52.351562 167.863281 50.203125 161.347656 52.40625 155.648438 C 54.203125 151 58.734375 147.726562 63.621094 146.78125 C 70.523438 145.449219 76.960938 148.226562 82.179688 152.554688 C 76.054688 140.859375 85.476562 122.535156 100.574219 131.492188 C 111.363281 137.878906 110.03125 150.945312 110.660156 161.753906 C 110.753906 163.273438 110.9375 164.808594 111.195312 166.308594 C 113.121094 177.117188 119.617188 187.316406 130.070312 191.703125 C 131.03125 192.089844 133.234375 193.292969 134.289062 193.089844 Z M 61.675781 92.625 C 65.121094 92.625 67.914062 89.832031 67.914062 86.386719 C 67.914062 82.945312 65.121094 80.148438 61.675781 80.148438 C 58.234375 80.148438 55.441406 82.945312 55.441406 86.386719 C 55.421875 89.832031 58.21875 92.625 61.675781 92.625 Z M 160.160156 29.398438 C 158.496094 29.398438 157.160156 30.75 157.160156 32.398438 C 157.160156 34.0625 158.511719 35.394531 160.160156 35.394531 C 161.824219 35.394531 163.15625 34.042969 163.15625 32.398438 C 163.15625 30.75 161.824219 29.398438 160.160156 29.398438 Z M 186.027344 71.523438 C 182.753906 71.523438 180.089844 74.191406 180.089844 77.464844 C 180.089844 80.742188 182.753906 83.40625 186.027344 83.40625 C 189.304688 83.40625 191.96875 80.742188 191.96875 77.464844 C 191.96875 74.191406 189.304688 71.523438 186.027344 71.523438 Z M 169.355469 47.777344 C 167.894531 47.777344 166.730469 48.964844 166.730469 50.40625 C 166.730469 51.867188 167.914062 53.035156 169.355469 53.035156 C 170.816406 53.035156 171.984375 51.851562 171.984375 50.40625 C 171.984375 48.964844 170.800781 47.777344 169.355469 47.777344 Z M 49.6875 201.753906 C 46.523438 201.753906 43.949219 204.324219 43.949219 207.492188 C 43.949219 210.65625 46.523438 213.226562 49.6875 213.226562 C 52.851562 213.226562 55.421875 210.65625 55.421875 207.492188 C 55.421875 204.324219 52.851562 201.753906 49.6875 201.753906 Z M 29.367188 184.167969 C 27.371094 184.167969 25.742188 185.796875 25.742188 187.796875 C 25.742188 189.796875 27.371094 191.425781 29.367188 191.425781 C 31.367188 191.425781 32.996094 189.796875 32.996094 187.796875 C 32.996094 185.796875 31.367188 184.167969 29.367188 184.167969 Z M 29.367188 83.757812 C 29.367188 81.761719 27.738281 80.132812 25.742188 80.132812 C 23.761719 80.148438 22.132812 81.761719 22.132812 83.757812 C 22.132812 85.757812 23.761719 87.386719 25.761719 87.386719 C 27.757812 87.386719 29.367188 85.757812 29.367188 83.757812 Z M 29.367188 83.757812 " fill-opacity="1" fill-rule="nonzero"/></g><g clip-path="url(#id2)"><path fill="#157a2c" d="M 136.546875 142.597656 C 133.421875 130.585938 133.4375 117.761719 136.734375 105.785156 C 138.34375 99.953125 141.542969 91.976562 147.445312 89.015625 C 150.554688 87.460938 154.535156 87.515625 157.382812 89.71875 C 160.9375 92.476562 159.550781 96.992188 157.144531 100.566406 C 160.398438 98.382812 163.769531 96.140625 167.617188 95.289062 C 171.464844 94.4375 175.925781 95.308594 178.351562 98.398438 C 180.996094 101.785156 180.402344 106.859375 178.183594 110.542969 C 172.519531 119.960938 159.753906 121.5 150.277344 127.070312 C 144.191406 130.625 139.453125 136.195312 136.546875 142.597656 Z M 347.796875 228.644531 C 347.554688 228.71875 347.335938 228.777344 347.09375 228.8125 L 346.945312 228.832031 C 343.523438 229.421875 340.210938 230.550781 337.121094 232.347656 C 334.011719 234.105469 331.234375 236.679688 328.738281 239.601562 C 327.421875 241.15625 326.203125 242.84375 325.054688 244.621094 C 325.941406 254.078125 326.851562 263.554688 327.738281 273.011719 C 332.179688 309.398438 299.332031 339.328125 265.96875 343.898438 C 234.84375 346.527344 203.496094 346.601562 172.371094 343.898438 C 136.398438 341.992188 109.273438 307.457031 110.605469 273.011719 C 111.511719 263.386719 112.417969 253.761719 113.324219 244.136719 C 112.269531 242.546875 111.160156 241.027344 109.957031 239.621094 C 107.457031 236.699219 104.683594 234.125 101.574219 232.367188 C 98.484375 230.570312 95.171875 229.441406 91.746094 228.851562 L 91.601562 228.832031 C 87.621094 228.128906 84.976562 224.351562 85.679688 220.371094 C 86.382812 216.394531 90.15625 213.746094 94.136719 214.449219 C 94.375 214.488281 94.617188 214.542969 94.855469 214.617188 C 99.980469 216.058594 104.847656 218.390625 109.03125 221.519531 C 111.234375 223.128906 113.195312 224.980469 114.953125 226.941406 C 115.304688 223.203125 115.65625 219.464844 116.007812 215.726562 L 322.316406 215.726562 C 322.6875 219.59375 323.054688 223.464844 323.40625 227.332031 C 325.257812 225.222656 327.3125 223.242188 329.664062 221.519531 C 333.84375 218.390625 338.710938 216.058594 343.835938 214.617188 C 347.722656 213.523438 351.757812 215.78125 352.847656 219.667969 C 353.941406 223.519531 351.664062 227.554688 347.796875 228.644531 Z M 144.765625 311.417969 C 132.234375 299.277344 125.257812 281.101562 126.628906 263.257812 C 126.722656 262.128906 125.90625 261.109375 124.777344 260.980469 C 123.613281 260.832031 122.539062 261.648438 122.390625 262.832031 C 119.949219 281.894531 126.277344 301.996094 139.621094 316.433594 C 139.65625 316.46875 139.710938 316.542969 139.765625 316.582031 C 141.191406 317.96875 143.46875 317.933594 144.835938 316.507812 C 146.226562 315.0625 146.1875 312.785156 144.765625 311.417969 Z M 144.765625 311.417969 " fill-opacity="1" fill-rule="nonzero"/></g><path fill="#57a52c" d="M 138.046875 64.675781 C 138.046875 61.050781 140.988281 58.125 144.597656 58.125 C 148.222656 58.125 151.148438 61.066406 151.148438 64.675781 C 151.148438 68.304688 148.207031 71.230469 144.597656 71.230469 C 140.988281 71.246094 138.046875 68.304688 138.046875 64.675781 Z M 49.6875 110.726562 C 47.1875 110.726562 45.152344 112.761719 45.152344 115.261719 C 45.152344 117.761719 47.1875 119.796875 49.6875 119.796875 C 52.183594 119.796875 54.21875 117.761719 54.21875 115.261719 C 54.21875 112.761719 52.183594 110.726562 49.6875 110.726562 Z M 319.671875 212.082031 L 134.160156 174.378906 C 155.050781 155.519531 191.914062 146.949219 231.347656 154.074219 C 230.070312 150.410156 229.71875 146.132812 230.125 144.429688 C 230.847656 141.378906 235.566406 139.859375 240.691406 141.0625 C 245.816406 142.265625 249.390625 145.707031 248.667969 148.78125 C 248.277344 150.445312 246.132812 154.019531 243.449219 156.722656 C 279.976562 166.289062 308.34375 187.722656 319.671875 212.082031 Z M 212.507812 161.273438 C 212.714844 160.183594 211.992188 159.128906 210.898438 158.921875 C 203.164062 157.480469 195.410156 157.535156 187.675781 158.421875 C 183.808594 158.886719 179.960938 159.609375 176.148438 160.71875 C 172.335938 161.828125 168.5625 163.292969 164.953125 165.457031 C 164.898438 165.496094 164.824219 165.550781 164.75 165.585938 C 163.121094 166.714844 162.714844 168.957031 163.859375 170.585938 C 165.007812 172.210938 167.226562 172.621094 168.855469 171.472656 L 168.875 171.453125 C 174.371094 167.621094 181.421875 165.328125 188.507812 163.957031 C 195.632812 162.625 203.054688 162.070312 210.214844 162.882812 L 210.289062 162.882812 C 211.34375 163.015625 212.304688 162.3125 212.507812 161.273438 Z M 212.507812 161.273438 " fill-opacity="1" fill-rule="nonzero"/><path fill="#ffffff" d="M 144.765625 311.417969 C 146.1875 312.804688 146.226562 315.0625 144.835938 316.488281 C 143.449219 317.914062 141.191406 317.949219 139.765625 316.5625 C 139.730469 316.527344 139.65625 316.453125 139.621094 316.414062 C 126.257812 301.976562 119.929688 281.859375 122.390625 262.8125 C 122.539062 261.648438 123.613281 260.8125 124.777344 260.960938 C 125.90625 261.109375 126.722656 262.128906 126.628906 263.238281 C 125.257812 281.101562 132.234375 299.257812 144.765625 311.417969 Z M 210.898438 158.941406 C 203.164062 157.5 195.410156 157.554688 187.675781 158.441406 C 183.808594 158.90625 179.960938 159.625 176.148438 160.738281 C 172.335938 161.847656 168.5625 163.308594 164.953125 165.476562 C 164.898438 165.511719 164.824219 165.566406 164.75 165.605469 C 163.121094 166.734375 162.714844 168.972656 163.859375 170.601562 C 165.007812 172.230469 167.226562 172.636719 168.855469 171.492188 L 168.875 171.472656 C 174.371094 167.640625 181.421875 165.347656 188.507812 163.976562 C 195.632812 162.644531 203.054688 162.089844 210.214844 162.902344 L 210.289062 162.902344 C 211.324219 163.015625 212.289062 162.3125 212.492188 161.273438 C 212.714844 160.183594 211.992188 159.144531 210.898438 158.941406 Z M 210.898438 158.941406 " fill-opacity="1" fill-rule="nonzero"/></svg>